<svg xmlns="http://www.w3.org/2000/svg" viewBox="0 0 24 24" width="24" height="24">
  <defs>
    <linearGradient id="spade" x1="0%" y1="0%" x2="100%" y2="100%">
      <stop offset="0%" stop-color="#3b82f6"/>
      <stop offset="100%" stop-color="#8b5cf6"/>
    </linearGradient>
  </defs>
  <path d="M12 1.5C12 1.5 5 9 5 14.5C5 18.09 7.91 21 11.5 21C12 21 12.5 20.95 12.5 20.95V21.5C12.5 21.78 12.28 22 12 22H10C9.72 22 9.5 22.22 9.5 22.5V23.5H14.5V22.5C14.5 22.22 14.28 22 14 22H12C11.72 22 11.5 21.78 11.5 21.5V20.95C11.5 20.95 12 21 12.5 21C16.09 21 19 18.09 19 14.5C19 9 12 1.5 12 1.5Z"
        fill="url(#spade)"/>
</svg>
